{
    "asset" : {
        "generator" : "Khronos glTF Blender I/O v1.6.16",
        "version" : "2.0"
    },
    "scene" : 0,
    "scenes" : [
        {
            "name" : "Scene",
            "nodes" : [
                0,
                1,
                2,
                3
            ]
        }
    ],
    "nodes" : [
        {
            "mesh" : 0,
            "name" : "Cube",
            "scale" : [
                1,
                0.8986148834228516,
                1
            ],
            "translation" : [
                -3.9959559440612793,
                -0.5576078295707703,
                -0.6576211452484131
            ]
        },
        {
            "name" : "Camera",
            "rotation" : [
                0.483536034822464,
                0.33687159419059753,
                -0.20870360732078552,
                0.7804827094078064
            ],
            "translation" : [
                7.358891487121582,
                4.958309173583984,
                6.925790786743164
            ]
        },
        {
            "mesh" : 1,
            "name" : "Cylinder",
            "translation" : [
                0,
                -0.04932157322764397,
                0
            ]
        },
        {
            "mesh" : 2,
            "name" : "Torus",
            "translation" : [
                0,
                -0.04932157322764397,
                0
            ]
        }
    ],
    "materials" : [
        {
            "doubleSided" : true,
            "name" : "back_blader",
            "pbrMetallicRoughness" : {
                "baseColorFactor" : [
                    0,
                    0,
                    0,
                    1
                ],
                "roughnessFactor" : 0.4000000059604645
            }
        },
        {
            "doubleSided" : true,
            "name" : "front_blande",
            "pbrMetallicRoughness" : {
                "baseColorFactor" : [
                    0.5173289179801941,
                    0.5173289179801941,
                    0.5173289179801941,
                    1
                ],
                "roughnessFactor" : 0.5
            }
        },
        {
            "doubleSided" : true,
            "name" : "handle",
            "pbrMetallicRoughness" : {
                "baseColorFactor" : [
                    0.18447504937648773,
                    0.15292616188526154,
                    0.34670406579971313,
                    1
                ],
                "metallicFactor" : 0
            }
        }
    ],
    "meshes" : [
        {
            "name" : "Cube",
            "primitives" : [
                {
                    "attributes" : {
                        "POSITION" : 0,
                        "NORMAL" : 1,
                        "TEXCOORD_0" : 2
                    },
                    "indices" : 3,
                    "material" : 0
                },
                {
                    "attributes" : {
                        "POSITION" : 4,
                        "NORMAL" : 5,
                        "TEXCOORD_0" : 6
                    },
                    "indices" : 7,
                    "material" : 1
                }
            ]
        },
        {
            "name" : "Cylinder",
            "primitives" : [
                {
                    "attributes" : {
                        "POSITION" : 8,
                        "NORMAL" : 9,
                        "TEXCOORD_0" : 10
                    },
                    "indices" : 11,
                    "material" : 2
                }
            ]
        },
        {
            "name" : "Torus",
            "primitives" : [
                {
                    "attributes" : {
                        "POSITION" : 12,
                        "NORMAL" : 13,
                        "TEXCOORD_0" : 14
                    },
                    "indices" : 15
                }
            ]
        }
    ],
    "accessors" : [
        {
            "bufferView" : 0,
            "componentType" : 5126,
            "count" : 53,
            "max" : [
                4.162217617034912,
                41.18989562988281,
                1.3883507251739502
            ],
            "min" : [
                3.894045352935791,
                7.474902629852295,
                -0.02710258960723877
            ],
            "type" : "VEC3"
        },
        {
            "bufferView" : 1,
            "componentType" : 5126,
            "count" : 53,
            "type" : "VEC3"
        },
        {
            "bufferView" : 2,
            "componentType" : 5126,
            "count" : 53,
            "type" : "VEC2"
        },
        {
            "bufferView" : 3,
            "componentType" : 5123,
            "count" : 108,
            "type" : "SCALAR"
        },
        {
            "bufferView" : 4,
            "componentType" : 5126,
            "count" : 42,
            "max" : [
                4.162217617034912,
                41.18989562988281,
                1.3883507251739502
            ],
            "min" : [
                3.894045352935791,
                7.474902629852295,
                0.3883507251739502
            ],
            "type" : "VEC3"
        },
        {
            "bufferView" : 5,
            "componentType" : 5126,
            "count" : 42,
            "type" : "VEC3"
        },
        {
            "bufferView" : 6,
            "componentType" : 5126,
            "count" : 42,
            "type" : "VEC2"
        },
        {
            "bufferView" : 7,
            "componentType" : 5123,
            "count" : 72,
            "type" : "SCALAR"
        },
        {
            "bufferView" : 8,
            "componentType" : 5126,
            "count" : 192,
            "max" : [
                0.5757976770401001,
                6.55253267288208,
                0.9979077577590942
            ],
            "min" : [
                -0.5118591785430908,
                0.009702205657958984,
                -0.9979079365730286
            ],
            "type" : "VEC3"
        },
        {
            "bufferView" : 9,
            "componentType" : 5126,
            "count" : 192,
            "type" : "VEC3"
        },
        {
            "bufferView" : 10,
            "componentType" : 5126,
            "count" : 192,
            "type" : "VEC2"
        },
        {
            "bufferView" : 11,
            "componentType" : 5123,
            "count" : 372,
            "type" : "SCALAR"
        },
        {
            "bufferView" : 12,
            "componentType" : 5126,
            "count" : 2304,
            "max" : [
                1.5115681886672974,
                7.377496242523193,
                1.494154691696167
            ],
            "min" : [
                -1.4767563343048096,
                6.389201641082764,
                -1.494154691696167
            ],
            "type" : "VEC3"
        },
        {
            "bufferView" : 13,
            "componentType" : 5126,
            "count" : 2304,
            "type" : "VEC3"
        },
        {
            "bufferView" : 14,
            "componentType" : 5126,
            "count" : 2304,
            "type" : "VEC2"
        },
        {
            "bufferView" : 15,
            "componentType" : 5123,
            "count" : 3456,
            "type" : "SCALAR"
        }
    ],
    "bufferViews" : [
        {
            "buffer" : 0,
            "byteLength" : 636,
            "byteOffset" : 0
        },
        {
            "buffer" : 0,
            "byteLength" : 636,
            "byteOffset" : 636
        },
        {
            "buffer" : 0,
            "byteLength" : 424,
            "byteOffset" : 1272
        },
        {
            "buffer" : 0,
            "byteLength" : 216,
            "byteOffset" : 1696
        },
        {
            "buffer" : 0,
            "byteLength" : 504,
            "byteOffset" : 1912
        },
        {
            "buffer" : 0,
            "byteLength" : 504,
            "byteOffset" : 2416
        },
        {
            "buffer" : 0,
            "byteLength" : 336,
            "byteOffset" : 2920
        },
        {
            "buffer" : 0,
            "byteLength" : 144,
            "byteOffset" : 3256
        },
        {
            "buffer" : 0,
            "byteLength" : 2304,
            "byteOffset" : 3400
        },
        {
            "buffer" : 0,
            "byteLength" : 2304,
            "byteOffset" : 5704
        },
        {
            "buffer" : 0,
            "byteLength" : 1536,
            "byteOffset" : 8008
        },
        {
            "buffer" : 0,
            "byteLength" : 744,
            "byteOffset" : 9544
        },
        {
            "buffer" : 0,
            "byteLength" : 27648,
            "byteOffset" : 10288
        },
        {
            "buffer" : 0,
            "byteLength" : 27648,
            "byteOffset" : 37936
        },
        {
            "buffer" : 0,
            "byteLength" : 18432,
            "byteOffset" : 65584
        },
        {
            "buffer" : 0,
            "byteLength" : 6912,
            "byteOffset" : 84016
        }
    ],
    "buffers" : [
        {
            "byteLength" : 90928,
            "uri" : "data:application/octet-stream;base64,"
        }
    ]
}
